<svg xmlns="http://www.w3.org/2000/svg" version="1.1" viewBox="-5.0 -10.0 110.0 135.0">
 <path d="m96.363 80.406-8.5234-62.504c-0.43359-3.0898-3.0742-5.3906-6.1914-5.4023h-63.297c-3.1211 0.011719-5.7578 2.3125-6.1914 5.4062l-8.5234 62.5c-0.24219 1.7852 0.29688 3.5938 1.4844 4.9531s2.9023 2.1406 4.707 2.1406h80.344c1.8047 0 3.5195-0.78125 4.707-2.1406s1.7266-3.168 1.4844-4.9531zm-86.535 0.84375 8.5234-62.5h63.297l8.5273 62.5zm62.047-50c0 7.8164-4.168 15.035-10.938 18.945-6.7695 3.9062-15.105 3.9062-21.875 0-6.7695-3.9102-10.938-11.129-10.938-18.945 0-1.7266 1.3984-3.125 3.125-3.125s3.125 1.3984 3.125 3.125c0 5.582 2.9766 10.742 7.8125 13.531 4.8359 2.793 10.789 2.793 15.625 0 4.8359-2.7891 7.8125-7.9492 7.8125-13.531 0-1.7266 1.3984-3.125 3.125-3.125s3.125 1.3984 3.125 3.125z"/></svg>