<svg width="94" height="76" viewBox="0 0 94 76" fill="none" xmlns="http://www.w3.org/2000/svg">
<path d="M93.363 68.406L84.8396 5.902C84.406 2.8122 81.7654 0.511395 78.6482 0.499695H15.3512C12.2301 0.511414 9.5934 2.81219 9.1598 5.90589L0.636403 68.4059C0.394213 70.1911 0.933283 71.9997 2.1208 73.359C3.30832 74.7183 5.0231 75.4996 6.8278 75.4996H87.1718C88.9765 75.4996 90.6913 74.7183 91.8788 73.359C93.0663 71.9996 93.6052 70.1911 93.363 68.406ZM6.828 69.2497L15.3514 6.74975H78.6484L87.1757 69.2497H6.828ZM68.875 19.2497C68.875 27.0661 64.707 34.2847 57.937 38.1947C51.1675 42.1009 42.832 42.1009 36.062 38.1947C29.2925 34.2845 25.124 27.0657 25.124 19.2497C25.124 17.5231 26.5224 16.1247 28.249 16.1247C29.9756 16.1247 31.374 17.5231 31.374 19.2497C31.374 24.8317 34.3506 29.9917 39.1865 32.7807C44.0224 35.5737 49.9755 35.5737 54.8115 32.7807C59.6474 29.9916 62.624 24.8315 62.624 19.2497C62.624 17.5231 64.0224 16.1247 65.749 16.1247C67.4756 16.1247 68.875 17.5231 68.875 19.2497Z" fill="black"/>
</svg>
